# MagicaVoxel @ Ephtracy

# group
o 

# material
mtllib Saucer_obj-0.mtl
usemtl palette

# normals
vn -1 0 0
vn 1 0 0
vn 0 0 1
vn 0 0 -1
vn 0 -1 0
vn 0 1 0

# texcoords
vt 0.134766 0.5
vt 0.587891 0.5
vt 0.884766 0.5

# verts
v 0.1 9.3 -1.5
v 0.1 9.3 -1.6
v 0.1 9.3 -1.7
v 0.1 9.3 -1.8
v 0.1 9.4 -1.5
v 0.1 9.4 -1.6
v 0.1 9.4 -1.7
v 0.1 9.4 -1.8
v 0.2 9.3 -1.3
v 0.2 9.3 -1.4
v 0.2 9.3 -1.9
v 0.2 9.3 -2
v 0.2 9.4 -1.3
v 0.2 9.4 -1.4
v 0.2 9.4 -1.9
v 0.2 9.4 -2
v 0.4 9.3 -1.1
v 0.4 9.3 -1.2
v 0.4 9.3 -2.1
v 0.4 9.3 -2.2
v 0.4 9.4 -1.1
v 0.4 9.4 -1.2
v 0.4 9.4 -2.1
v 0.4 9.4 -2.2
v 0.6 9.3 -1
v 0.6 9.3 -1.1
v 0.6 9.3 -2.2
v 0.6 9.3 -2.3
v 0.6 9.4 -1
v 0.6 9.4 -1.1
v 0.6 9.4 -2.2
v 0.6 9.4 -2.3
v 0.8 9.3 -1
v 0.8 9.3 -1.1
v 0.8 9.3 -2.2
v 0.8 9.3 -2.3
v 0.8 9.4 -1
v 0.8 9.4 -1.1
v 0.8 9.4 -2.2
v 0.8 9.4 -2.3
v 1 9.3 -1.1
v 1 9.3 -1.2
v 1 9.3 -2.1
v 1 9.3 -2.2
v 1 9.4 -1.1
v 1 9.4 -1.2
v 1 9.4 -2.1
v 1 9.4 -2.2
v 1.2 9.3 -1.3
v 1.2 9.3 -1.4
v 1.2 9.3 -1.9
v 1.2 9.3 -2
v 1.2 9.4 -1.3
v 1.2 9.4 -1.4
v 1.2 9.4 -1.9
v 1.2 9.4 -2
v 1.3 9.3 -1.5
v 1.3 9.3 -1.6
v 1.3 9.3 -1.7
v 1.3 9.3 -1.8
v 1.3 9.4 -1.5
v 1.3 9.4 -1.6
v 1.3 9.4 -1.7
v 1.3 9.4 -1.8
v 0.2 9.3 -1.5
v 0.2 9.3 -1.6
v 0.2 9.3 -1.7
v 0.2 9.3 -1.8
v 0.2 9.4 -1.5
v 0.2 9.4 -1.6
v 0.2 9.4 -1.7
v 0.2 9.4 -1.8
v 0.3 9.3 -1.3
v 0.3 9.3 -1.4
v 0.3 9.3 -1.9
v 0.3 9.3 -2
v 0.3 9.4 -1.3
v 0.3 9.4 -1.4
v 0.3 9.4 -1.9
v 0.3 9.4 -2
v 0.5 9.3 -1.1
v 0.5 9.3 -1.2
v 0.5 9.3 -2.1
v 0.5 9.3 -2.2
v 0.5 9.4 -1.1
v 0.5 9.4 -1.2
v 0.5 9.4 -2.1
v 0.5 9.4 -2.2
v 0.7 9.3 -1
v 0.7 9.3 -1.1
v 0.7 9.3 -2.2
v 0.7 9.3 -2.3
v 0.7 9.4 -1
v 0.7 9.4 -1.1
v 0.7 9.4 -2.2
v 0.7 9.4 -2.3
v 0.9 9.3 -1
v 0.9 9.3 -1.1
v 0.9 9.3 -2.2
v 0.9 9.3 -2.3
v 0.9 9.4 -1
v 0.9 9.4 -1.1
v 0.9 9.4 -2.2
v 0.9 9.4 -2.3
v 1.1 9.3 -1.1
v 1.1 9.3 -1.2
v 1.1 9.3 -2.1
v 1.1 9.3 -2.2
v 1.1 9.4 -1.1
v 1.1 9.4 -1.2
v 1.1 9.4 -2.1
v 1.1 9.4 -2.2
v 1.3 9.3 -1.3
v 1.3 9.3 -1.4
v 1.3 9.3 -1.9
v 1.3 9.3 -2
v 1.3 9.4 -1.3
v 1.3 9.4 -1.4
v 1.3 9.4 -1.9
v 1.3 9.4 -2
v 1.4 9.3 -1.5
v 1.4 9.3 -1.6
v 1.4 9.3 -1.7
v 1.4 9.3 -1.8
v 1.4 9.4 -1.5
v 1.4 9.4 -1.6
v 1.4 9.4 -1.7
v 1.4 9.4 -1.8
v 0.6 9.3 -1
v 0.6 9.4 -1
v 0.7 9.3 -1
v 0.7 9.4 -1
v 0.8 9.3 -1
v 0.8 9.4 -1
v 0.9 9.3 -1
v 0.9 9.4 -1
v 0.4 9.3 -1.1
v 0.4 9.4 -1.1
v 0.5 9.3 -1.1
v 0.5 9.4 -1.1
v 1 9.3 -1.1
v 1 9.4 -1.1
v 1.1 9.3 -1.1
v 1.1 9.4 -1.1
v 0.2 9.3 -1.3
v 0.2 9.4 -1.3
v 0.3 9.3 -1.3
v 0.3 9.4 -1.3
v 1.2 9.3 -1.3
v 1.2 9.4 -1.3
v 1.3 9.3 -1.3
v 1.3 9.4 -1.3
v 0.1 9.3 -1.5
v 0.1 9.4 -1.5
v 0.2 9.3 -1.5
v 0.2 9.4 -1.5
v 1.3 9.3 -1.5
v 1.3 9.4 -1.5
v 1.4 9.3 -1.5
v 1.4 9.4 -1.5
v 0.1 9.3 -1.7
v 0.1 9.4 -1.7
v 0.2 9.3 -1.7
v 0.2 9.4 -1.7
v 1.3 9.3 -1.7
v 1.3 9.4 -1.7
v 1.4 9.3 -1.7
v 1.4 9.4 -1.7
v 0.2 9.3 -1.9
v 0.2 9.4 -1.9
v 0.3 9.3 -1.9
v 0.3 9.4 -1.9
v 1.2 9.3 -1.9
v 1.2 9.4 -1.9
v 1.3 9.3 -1.9
v 1.3 9.4 -1.9
v 0.4 9.3 -2.1
v 0.4 9.4 -2.1
v 0.5 9.3 -2.1
v 0.5 9.4 -2.1
v 1 9.3 -2.1
v 1 9.4 -2.1
v 1.1 9.3 -2.1
v 1.1 9.4 -2.1
v 0.6 9.3 -2.2
v 0.6 9.4 -2.2
v 0.7 9.3 -2.2
v 0.7 9.4 -2.2
v 0.8 9.3 -2.2
v 0.8 9.4 -2.2
v 0.9 9.3 -2.2
v 0.9 9.4 -2.2
v 0.6 9.3 -1.1
v 0.6 9.4 -1.1
v 0.7 9.3 -1.1
v 0.7 9.4 -1.1
v 0.8 9.3 -1.1
v 0.8 9.4 -1.1
v 0.9 9.3 -1.1
v 0.9 9.4 -1.1
v 0.4 9.3 -1.2
v 0.4 9.4 -1.2
v 0.5 9.3 -1.2
v 0.5 9.4 -1.2
v 1 9.3 -1.2
v 1 9.4 -1.2
v 1.1 9.3 -1.2
v 1.1 9.4 -1.2
v 0.2 9.3 -1.4
v 0.2 9.4 -1.4
v 0.3 9.3 -1.4
v 0.3 9.4 -1.4
v 1.2 9.3 -1.4
v 1.2 9.4 -1.4
v 1.3 9.3 -1.4
v 1.3 9.4 -1.4
v 0.1 9.3 -1.6
v 0.1 9.4 -1.6
v 0.2 9.3 -1.6
v 0.2 9.4 -1.6
v 1.3 9.3 -1.6
v 1.3 9.4 -1.6
v 1.4 9.3 -1.6
v 1.4 9.4 -1.6
v 0.1 9.3 -1.8
v 0.1 9.4 -1.8
v 0.2 9.3 -1.8
v 0.2 9.4 -1.8
v 1.3 9.3 -1.8
v 1.3 9.4 -1.8
v 1.4 9.3 -1.8
v 1.4 9.4 -1.8
v 0.2 9.3 -2
v 0.2 9.4 -2
v 0.3 9.3 -2
v 0.3 9.4 -2
v 1.2 9.3 -2
v 1.2 9.4 -2
v 1.3 9.3 -2
v 1.3 9.4 -2
v 0.4 9.3 -2.2
v 0.4 9.4 -2.2
v 0.5 9.3 -2.2
v 0.5 9.4 -2.2
v 1 9.3 -2.2
v 1 9.4 -2.2
v 1.1 9.3 -2.2
v 1.1 9.4 -2.2
v 0.6 9.3 -2.3
v 0.6 9.4 -2.3
v 0.7 9.3 -2.3
v 0.7 9.4 -2.3
v 0.8 9.3 -2.3
v 0.8 9.4 -2.3
v 0.9 9.3 -2.3
v 0.9 9.4 -2.3
v 0.6 9.3 -1
v 0.7 9.3 -1
v 0.8 9.3 -1
v 0.9 9.3 -1
v 0.4 9.3 -1.1
v 0.5 9.3 -1.1
v 0.6 9.3 -1.1
v 0.7 9.3 -1.1
v 0.8 9.3 -1.1
v 0.9 9.3 -1.1
v 1 9.3 -1.1
v 1.1 9.3 -1.1
v 0.4 9.3 -1.2
v 0.5 9.3 -1.2
v 1 9.3 -1.2
v 1.1 9.3 -1.2
v 0.2 9.3 -1.3
v 0.3 9.3 -1.3
v 1.2 9.3 -1.3
v 1.3 9.3 -1.3
v 0.2 9.3 -1.4
v 0.3 9.3 -1.4
v 1.2 9.3 -1.4
v 1.3 9.3 -1.4
v 0.1 9.3 -1.5
v 0.2 9.3 -1.5
v 1.3 9.3 -1.5
v 1.4 9.3 -1.5
v 0.1 9.3 -1.6
v 0.2 9.3 -1.6
v 1.3 9.3 -1.6
v 1.4 9.3 -1.6
v 0.1 9.3 -1.7
v 0.2 9.3 -1.7
v 1.3 9.3 -1.7
v 1.4 9.3 -1.7
v 0.1 9.3 -1.8
v 0.2 9.3 -1.8
v 1.3 9.3 -1.8
v 1.4 9.3 -1.8
v 0.2 9.3 -1.9
v 0.3 9.3 -1.9
v 1.2 9.3 -1.9
v 1.3 9.3 -1.9
v 0.2 9.3 -2
v 0.3 9.3 -2
v 1.2 9.3 -2
v 1.3 9.3 -2
v 0.4 9.3 -2.1
v 0.5 9.3 -2.1
v 1 9.3 -2.1
v 1.1 9.3 -2.1
v 0.4 9.3 -2.2
v 0.5 9.3 -2.2
v 0.6 9.3 -2.2
v 0.7 9.3 -2.2
v 0.8 9.3 -2.2
v 0.9 9.3 -2.2
v 1 9.3 -2.2
v 1.1 9.3 -2.2
v 0.6 9.3 -2.3
v 0.7 9.3 -2.3
v 0.8 9.3 -2.3
v 0.9 9.3 -2.3
v 0.6 9.4 -1
v 0.7 9.4 -1
v 0.8 9.4 -1
v 0.9 9.4 -1
v 0.4 9.4 -1.1
v 0.5 9.4 -1.1
v 0.6 9.4 -1.1
v 0.7 9.4 -1.1
v 0.8 9.4 -1.1
v 0.9 9.4 -1.1
v 1 9.4 -1.1
v 1.1 9.4 -1.1
v 0.4 9.4 -1.2
v 0.5 9.4 -1.2
v 1 9.4 -1.2
v 1.1 9.4 -1.2
v 0.2 9.4 -1.3
v 0.3 9.4 -1.3
v 1.2 9.4 -1.3
v 1.3 9.4 -1.3
v 0.2 9.4 -1.4
v 0.3 9.4 -1.4
v 1.2 9.4 -1.4
v 1.3 9.4 -1.4
v 0.1 9.4 -1.5
v 0.2 9.4 -1.5
v 1.3 9.4 -1.5
v 1.4 9.4 -1.5
v 0.1 9.4 -1.6
v 0.2 9.4 -1.6
v 1.3 9.4 -1.6
v 1.4 9.4 -1.6
v 0.1 9.4 -1.7
v 0.2 9.4 -1.7
v 1.3 9.4 -1.7
v 1.4 9.4 -1.7
v 0.1 9.4 -1.8
v 0.2 9.4 -1.8
v 1.3 9.4 -1.8
v 1.4 9.4 -1.8
v 0.2 9.4 -1.9
v 0.3 9.4 -1.9
v 1.2 9.4 -1.9
v 1.3 9.4 -1.9
v 0.2 9.4 -2
v 0.3 9.4 -2
v 1.2 9.4 -2
v 1.3 9.4 -2
v 0.4 9.4 -2.1
v 0.5 9.4 -2.1
v 1 9.4 -2.1
v 1.1 9.4 -2.1
v 0.4 9.4 -2.2
v 0.5 9.4 -2.2
v 0.6 9.4 -2.2
v 0.7 9.4 -2.2
v 0.8 9.4 -2.2
v 0.9 9.4 -2.2
v 1 9.4 -2.2
v 1.1 9.4 -2.2
v 0.6 9.4 -2.3
v 0.7 9.4 -2.3
v 0.8 9.4 -2.3
v 0.9 9.4 -2.3

# faces
f 5/3/1 2/3/1 1/3/1
f 6/3/1 2/3/1 5/3/1
f 7/3/1 4/3/1 3/3/1
f 8/3/1 4/3/1 7/3/1
f 13/2/1 10/2/1 9/2/1
f 14/2/1 10/2/1 13/2/1
f 15/2/1 12/2/1 11/2/1
f 16/2/1 12/2/1 15/2/1
f 21/1/1 18/1/1 17/1/1
f 22/1/1 18/1/1 21/1/1
f 23/1/1 20/1/1 19/1/1
f 24/1/1 20/1/1 23/1/1
f 29/3/1 26/3/1 25/3/1
f 30/3/1 26/3/1 29/3/1
f 31/3/1 28/3/1 27/3/1
f 32/3/1 28/3/1 31/3/1
f 37/3/1 34/3/1 33/3/1
f 38/3/1 34/3/1 37/3/1
f 39/3/1 36/3/1 35/3/1
f 40/3/1 36/3/1 39/3/1
f 45/1/1 42/1/1 41/1/1
f 46/1/1 42/1/1 45/1/1
f 47/1/1 44/1/1 43/1/1
f 48/1/1 44/1/1 47/1/1
f 53/2/1 50/2/1 49/2/1
f 54/2/1 50/2/1 53/2/1
f 55/2/1 52/2/1 51/2/1
f 56/2/1 52/2/1 55/2/1
f 61/3/1 58/3/1 57/3/1
f 62/3/1 58/3/1 61/3/1
f 63/3/1 60/3/1 59/3/1
f 64/3/1 60/3/1 63/3/1
f 65/3/2 66/3/2 69/3/2
f 69/3/2 66/3/2 70/3/2
f 67/3/2 68/3/2 71/3/2
f 71/3/2 68/3/2 72/3/2
f 73/2/2 74/2/2 77/2/2
f 77/2/2 74/2/2 78/2/2
f 75/2/2 76/2/2 79/2/2
f 79/2/2 76/2/2 80/2/2
f 81/1/2 82/1/2 85/1/2
f 85/1/2 82/1/2 86/1/2
f 83/1/2 84/1/2 87/1/2
f 87/1/2 84/1/2 88/1/2
f 89/3/2 90/3/2 93/3/2
f 93/3/2 90/3/2 94/3/2
f 91/3/2 92/3/2 95/3/2
f 95/3/2 92/3/2 96/3/2
f 97/3/2 98/3/2 101/3/2
f 101/3/2 98/3/2 102/3/2
f 99/3/2 100/3/2 103/3/2
f 103/3/2 100/3/2 104/3/2
f 105/1/2 106/1/2 109/1/2
f 109/1/2 106/1/2 110/1/2
f 107/1/2 108/1/2 111/1/2
f 111/1/2 108/1/2 112/1/2
f 113/2/2 114/2/2 117/2/2
f 117/2/2 114/2/2 118/2/2
f 115/2/2 116/2/2 119/2/2
f 119/2/2 116/2/2 120/2/2
f 121/3/2 122/3/2 125/3/2
f 125/3/2 122/3/2 126/3/2
f 123/3/2 124/3/2 127/3/2
f 127/3/2 124/3/2 128/3/2
f 131/3/3 130/3/3 129/3/3
f 132/3/3 130/3/3 131/3/3
f 135/3/3 134/3/3 133/3/3
f 136/3/3 134/3/3 135/3/3
f 139/1/3 138/1/3 137/1/3
f 140/1/3 138/1/3 139/1/3
f 143/1/3 142/1/3 141/1/3
f 144/1/3 142/1/3 143/1/3
f 147/2/3 146/2/3 145/2/3
f 148/2/3 146/2/3 147/2/3
f 151/2/3 150/2/3 149/2/3
f 152/2/3 150/2/3 151/2/3
f 155/3/3 154/3/3 153/3/3
f 156/3/3 154/3/3 155/3/3
f 159/3/3 158/3/3 157/3/3
f 160/3/3 158/3/3 159/3/3
f 163/3/3 162/3/3 161/3/3
f 164/3/3 162/3/3 163/3/3
f 167/3/3 166/3/3 165/3/3
f 168/3/3 166/3/3 167/3/3
f 171/2/3 170/2/3 169/2/3
f 172/2/3 170/2/3 171/2/3
f 175/2/3 174/2/3 173/2/3
f 176/2/3 174/2/3 175/2/3
f 179/1/3 178/1/3 177/1/3
f 180/1/3 178/1/3 179/1/3
f 183/1/3 182/1/3 181/1/3
f 184/1/3 182/1/3 183/1/3
f 187/3/3 186/3/3 185/3/3
f 188/3/3 186/3/3 187/3/3
f 191/3/3 190/3/3 189/3/3
f 192/3/3 190/3/3 191/3/3
f 193/3/4 194/3/4 195/3/4
f 195/3/4 194/3/4 196/3/4
f 197/3/4 198/3/4 199/3/4
f 199/3/4 198/3/4 200/3/4
f 201/1/4 202/1/4 203/1/4
f 203/1/4 202/1/4 204/1/4
f 205/1/4 206/1/4 207/1/4
f 207/1/4 206/1/4 208/1/4
f 209/2/4 210/2/4 211/2/4
f 211/2/4 210/2/4 212/2/4
f 213/2/4 214/2/4 215/2/4
f 215/2/4 214/2/4 216/2/4
f 217/3/4 218/3/4 219/3/4
f 219/3/4 218/3/4 220/3/4
f 221/3/4 222/3/4 223/3/4
f 223/3/4 222/3/4 224/3/4
f 225/3/4 226/3/4 227/3/4
f 227/3/4 226/3/4 228/3/4
f 229/3/4 230/3/4 231/3/4
f 231/3/4 230/3/4 232/3/4
f 233/2/4 234/2/4 235/2/4
f 235/2/4 234/2/4 236/2/4
f 237/2/4 238/2/4 239/2/4
f 239/2/4 238/2/4 240/2/4
f 241/1/4 242/1/4 243/1/4
f 243/1/4 242/1/4 244/1/4
f 245/1/4 246/1/4 247/1/4
f 247/1/4 246/1/4 248/1/4
f 249/3/4 250/3/4 251/3/4
f 251/3/4 250/3/4 252/3/4
f 253/3/4 254/3/4 255/3/4
f 255/3/4 254/3/4 256/3/4
f 263/3/5 258/3/5 257/3/5
f 264/3/5 258/3/5 263/3/5
f 265/3/5 260/3/5 259/3/5
f 266/3/5 260/3/5 265/3/5
f 269/1/5 262/1/5 261/1/5
f 270/1/5 262/1/5 269/1/5
f 271/1/5 268/1/5 267/1/5
f 272/1/5 268/1/5 271/1/5
f 277/2/5 274/2/5 273/2/5
f 278/2/5 274/2/5 277/2/5
f 279/2/5 276/2/5 275/2/5
f 280/2/5 276/2/5 279/2/5
f 285/3/5 282/3/5 281/3/5
f 286/3/5 282/3/5 285/3/5
f 287/3/5 284/3/5 283/3/5
f 288/3/5 284/3/5 287/3/5
f 293/3/5 290/3/5 289/3/5
f 294/3/5 290/3/5 293/3/5
f 295/3/5 292/3/5 291/3/5
f 296/3/5 292/3/5 295/3/5
f 301/2/5 298/2/5 297/2/5
f 302/2/5 298/2/5 301/2/5
f 303/2/5 300/2/5 299/2/5
f 304/2/5 300/2/5 303/2/5
f 309/1/5 306/1/5 305/1/5
f 310/1/5 306/1/5 309/1/5
f 315/1/5 308/1/5 307/1/5
f 316/1/5 308/1/5 315/1/5
f 317/3/5 312/3/5 311/3/5
f 318/3/5 312/3/5 317/3/5
f 319/3/5 314/3/5 313/3/5
f 320/3/5 314/3/5 319/3/5
f 321/3/6 322/3/6 327/3/6
f 327/3/6 322/3/6 328/3/6
f 323/3/6 324/3/6 329/3/6
f 329/3/6 324/3/6 330/3/6
f 325/1/6 326/1/6 333/1/6
f 333/1/6 326/1/6 334/1/6
f 331/1/6 332/1/6 335/1/6
f 335/1/6 332/1/6 336/1/6
f 337/2/6 338/2/6 341/2/6
f 341/2/6 338/2/6 342/2/6
f 339/2/6 340/2/6 343/2/6
f 343/2/6 340/2/6 344/2/6
f 345/3/6 346/3/6 349/3/6
f 349/3/6 346/3/6 350/3/6
f 347/3/6 348/3/6 351/3/6
f 351/3/6 348/3/6 352/3/6
f 353/3/6 354/3/6 357/3/6
f 357/3/6 354/3/6 358/3/6
f 355/3/6 356/3/6 359/3/6
f 359/3/6 356/3/6 360/3/6
f 361/2/6 362/2/6 365/2/6
f 365/2/6 362/2/6 366/2/6
f 363/2/6 364/2/6 367/2/6
f 367/2/6 364/2/6 368/2/6
f 369/1/6 370/1/6 373/1/6
f 373/1/6 370/1/6 374/1/6
f 371/1/6 372/1/6 379/1/6
f 379/1/6 372/1/6 380/1/6
f 375/3/6 376/3/6 381/3/6
f 381/3/6 376/3/6 382/3/6
f 377/3/6 378/3/6 383/3/6
f 383/3/6 378/3/6 384/3/6
