# MagicaVoxel @ Ephtracy

# group
o 

# material
mtllib Missile.mtl
usemtl palette

# normals
vn -1 0 0
vn 1 0 0
vn 0 0 1
vn 0 0 -1
vn 0 -1 0
vn 0 1 0

# texcoords
vt 0.857422 0.5
vt 0.978516 0.5
vt 0.982422 0.5
vt 0.990234 0.5

# verts
v -0.4 -4 0.1
v -0.4 -4 0
v -0.4 -3.6 0.1
v -0.4 -3.6 0
v -0.3 -3.6 0.1
v -0.3 -3.6 0
v -0.3 -3.5 0.1
v -0.3 -3.5 0
v -0.2 -3.5 0.1
v -0.2 -3.5 0
v -0.2 -3.4 0.1
v -0.2 -3.4 0
v -0.2 -3.2 0.1
v -0.2 -3.2 0
v -0.2 -3 0.1
v -0.2 -3 0
v -0.2 -2.8 0.1
v -0.2 -2.8 0
v -0.2 -2.7 0.1
v -0.2 -2.7 0
v -0.2 -2.5 0.1
v -0.2 -2.5 0
v -0.1 -4 0.4
v -0.1 -4 0.3
v -0.1 -4 -0.2
v -0.1 -4 -0.3
v -0.1 -3.9 0.3
v -0.1 -3.9 0.2
v -0.1 -3.9 -0.1
v -0.1 -3.9 -0.2
v -0.1 -3.8 0.2
v -0.1 -3.8 0.1
v -0.1 -3.8 0
v -0.1 -3.8 -0.1
v -0.1 -3.7 0.4
v -0.1 -3.7 0.3
v -0.1 -3.7 0.2
v -0.1 -3.7 0.1
v -0.1 -3.7 0
v -0.1 -3.7 -0.1
v -0.1 -3.7 -0.2
v -0.1 -3.7 -0.3
v -0.1 -3.5 0.3
v -0.1 -3.5 0.2
v -0.1 -3.5 0.1
v -0.1 -3.5 0
v -0.1 -3.5 -0.1
v -0.1 -3.5 -0.2
v -0.1 -3.4 0.1
v -0.1 -3.4 0
v -0.1 -3.2 0.2
v -0.1 -3.2 0.1
v -0.1 -3.2 0
v -0.1 -3.2 -0.1
v -0.1 -3 0.2
v -0.1 -3 0.1
v -0.1 -3 0
v -0.1 -3 -0.1
v -0.1 -2.8 0.1
v -0.1 -2.8 0
v -0.1 -2.7 0.2
v -0.1 -2.7 0.1
v -0.1 -2.7 0
v -0.1 -2.7 -0.1
v -0.1 -2.5 0.2
v -0.1 -2.5 0.1
v -0.1 -2.5 0
v -0.1 -2.5 -0.1
v -0.1 -2.4 0.1
v -0.1 -2.4 0
v 0.1 -3.9 0.1
v 0.1 -3.9 0
v 0.1 -3.8 0.1
v 0.1 -3.8 0
v 0.2 -4 0.1
v 0.2 -4 0
v 0.2 -3.9 0.1
v 0.2 -3.9 0
v -0.3 -4 0.1
v -0.3 -4 0
v -0.3 -3.9 0.1
v -0.3 -3.9 0
v -0.2 -3.9 0.1
v -0.2 -3.9 0
v -0.2 -3.8 0.1
v -0.2 -3.8 0
v 0 -4 0.4
v 0 -4 0.3
v 0 -4 -0.2
v 0 -4 -0.3
v 0 -3.9 0.3
v 0 -3.9 0.2
v 0 -3.9 -0.1
v 0 -3.9 -0.2
v 0 -3.8 0.2
v 0 -3.8 0.1
v 0 -3.8 0
v 0 -3.8 -0.1
v 0 -3.7 0.4
v 0 -3.7 0.3
v 0 -3.7 0.2
v 0 -3.7 0.1
v 0 -3.7 0
v 0 -3.7 -0.1
v 0 -3.7 -0.2
v 0 -3.7 -0.3
v 0 -3.5 0.3
v 0 -3.5 0.2
v 0 -3.5 0.1
v 0 -3.5 0
v 0 -3.5 -0.1
v 0 -3.5 -0.2
v 0 -3.4 0.1
v 0 -3.4 0
v 0 -3.2 0.2
v 0 -3.2 0.1
v 0 -3.2 0
v 0 -3.2 -0.1
v 0 -3 0.2
v 0 -3 0.1
v 0 -3 0
v 0 -3 -0.1
v 0 -2.8 0.1
v 0 -2.8 0
v 0 -2.7 0.2
v 0 -2.7 0.1
v 0 -2.7 0
v 0 -2.7 -0.1
v 0 -2.5 0.2
v 0 -2.5 0.1
v 0 -2.5 0
v 0 -2.5 -0.1
v 0 -2.4 0.1
v 0 -2.4 0
v 0.1 -3.5 0.1
v 0.1 -3.5 0
v 0.1 -3.4 0.1
v 0.1 -3.4 0
v 0.1 -3.2 0.1
v 0.1 -3.2 0
v 0.1 -3 0.1
v 0.1 -3 0
v 0.1 -2.8 0.1
v 0.1 -2.8 0
v 0.1 -2.7 0.1
v 0.1 -2.7 0
v 0.1 -2.5 0.1
v 0.1 -2.5 0
v 0.2 -3.6 0.1
v 0.2 -3.6 0
v 0.2 -3.5 0.1
v 0.2 -3.5 0
v 0.3 -4 0.1
v 0.3 -4 0
v 0.3 -3.6 0.1
v 0.3 -3.6 0
v -0.1 -4 0.4
v -0.1 -3.7 0.4
v 0 -4 0.4
v 0 -3.7 0.4
v -0.1 -3.7 0.3
v -0.1 -3.5 0.3
v 0 -3.7 0.3
v 0 -3.5 0.3
v -0.1 -3.5 0.2
v -0.1 -3.2 0.2
v -0.1 -3 0.2
v -0.1 -2.7 0.2
v -0.1 -2.5 0.2
v 0 -3.5 0.2
v 0 -3.2 0.2
v 0 -3 0.2
v 0 -2.7 0.2
v 0 -2.5 0.2
v -0.4 -4 0.1
v -0.4 -3.6 0.1
v -0.3 -4 0.1
v -0.3 -3.9 0.1
v -0.3 -3.6 0.1
v -0.3 -3.5 0.1
v -0.2 -3.9 0.1
v -0.2 -3.8 0.1
v -0.2 -3.7 0.1
v -0.2 -3.5 0.1
v -0.2 -3.4 0.1
v -0.2 -3.2 0.1
v -0.2 -3 0.1
v -0.2 -2.8 0.1
v -0.2 -2.7 0.1
v -0.2 -2.5 0.1
v -0.1 -3.8 0.1
v -0.1 -3.7 0.1
v -0.1 -3.5 0.1
v -0.1 -3.4 0.1
v -0.1 -3.2 0.1
v -0.1 -3 0.1
v -0.1 -2.8 0.1
v -0.1 -2.7 0.1
v -0.1 -2.5 0.1
v -0.1 -2.4 0.1
v 0 -3.8 0.1
v 0 -3.7 0.1
v 0 -3.5 0.1
v 0 -3.4 0.1
v 0 -3.2 0.1
v 0 -3 0.1
v 0 -2.8 0.1
v 0 -2.7 0.1
v 0 -2.5 0.1
v 0 -2.4 0.1
v 0.1 -3.9 0.1
v 0.1 -3.8 0.1
v 0.1 -3.7 0.1
v 0.1 -3.5 0.1
v 0.1 -3.4 0.1
v 0.1 -3.2 0.1
v 0.1 -3 0.1
v 0.1 -2.8 0.1
v 0.1 -2.7 0.1
v 0.1 -2.5 0.1
v 0.2 -4 0.1
v 0.2 -3.9 0.1
v 0.2 -3.6 0.1
v 0.2 -3.5 0.1
v 0.3 -4 0.1
v 0.3 -3.6 0.1
v -0.1 -3.9 -0.1
v -0.1 -3.8 -0.1
v 0 -3.9 -0.1
v 0 -3.8 -0.1
v -0.1 -4 -0.2
v -0.1 -3.9 -0.2
v 0 -4 -0.2
v 0 -3.9 -0.2
v -0.1 -4 0.3
v -0.1 -3.9 0.3
v 0 -4 0.3
v 0 -3.9 0.3
v -0.1 -3.9 0.2
v -0.1 -3.8 0.2
v 0 -3.9 0.2
v 0 -3.8 0.2
v -0.4 -4 0
v -0.4 -3.6 0
v -0.3 -4 0
v -0.3 -3.9 0
v -0.3 -3.6 0
v -0.3 -3.5 0
v -0.2 -3.9 0
v -0.2 -3.8 0
v -0.2 -3.7 0
v -0.2 -3.5 0
v -0.2 -3.4 0
v -0.2 -3.2 0
v -0.2 -3 0
v -0.2 -2.8 0
v -0.2 -2.7 0
v -0.2 -2.5 0
v -0.1 -3.8 0
v -0.1 -3.7 0
v -0.1 -3.5 0
v -0.1 -3.4 0
v -0.1 -3.2 0
v -0.1 -3 0
v -0.1 -2.8 0
v -0.1 -2.7 0
v -0.1 -2.5 0
v -0.1 -2.4 0
v 0 -3.8 0
v 0 -3.7 0
v 0 -3.5 0
v 0 -3.4 0
v 0 -3.2 0
v 0 -3 0
v 0 -2.8 0
v 0 -2.7 0
v 0 -2.5 0
v 0 -2.4 0
v 0.1 -3.9 0
v 0.1 -3.8 0
v 0.1 -3.7 0
v 0.1 -3.5 0
v 0.1 -3.4 0
v 0.1 -3.2 0
v 0.1 -3 0
v 0.1 -2.8 0
v 0.1 -2.7 0
v 0.1 -2.5 0
v 0.2 -4 0
v 0.2 -3.9 0
v 0.2 -3.6 0
v 0.2 -3.5 0
v 0.3 -4 0
v 0.3 -3.6 0
v -0.1 -3.5 -0.1
v -0.1 -3.2 -0.1
v -0.1 -3 -0.1
v -0.1 -2.7 -0.1
v -0.1 -2.5 -0.1
v 0 -3.5 -0.1
v 0 -3.2 -0.1
v 0 -3 -0.1
v 0 -2.7 -0.1
v 0 -2.5 -0.1
v -0.1 -3.7 -0.2
v -0.1 -3.5 -0.2
v 0 -3.7 -0.2
v 0 -3.5 -0.2
v -0.1 -4 -0.3
v -0.1 -3.7 -0.3
v 0 -4 -0.3
v 0 -3.7 -0.3
v -0.1 -4 0.4
v 0 -4 0.4
v -0.1 -4 0.3
v 0 -4 0.3
v -0.4 -4 0.1
v -0.3 -4 0.1
v 0.2 -4 0.1
v 0.3 -4 0.1
v -0.4 -4 0
v -0.3 -4 0
v 0.2 -4 0
v 0.3 -4 0
v -0.1 -4 -0.2
v 0 -4 -0.2
v -0.1 -4 -0.3
v 0 -4 -0.3
v -0.1 -3.9 0.3
v 0 -3.9 0.3
v -0.1 -3.9 0.2
v 0 -3.9 0.2
v -0.3 -3.9 0.1
v -0.2 -3.9 0.1
v 0.1 -3.9 0.1
v 0.2 -3.9 0.1
v -0.3 -3.9 0
v -0.2 -3.9 0
v 0.1 -3.9 0
v 0.2 -3.9 0
v -0.1 -3.9 -0.1
v 0 -3.9 -0.1
v -0.1 -3.9 -0.2
v 0 -3.9 -0.2
v -0.1 -3.8 0.2
v 0 -3.8 0.2
v -0.2 -3.8 0.1
v -0.1 -3.8 0.1
v 0 -3.8 0.1
v 0.1 -3.8 0.1
v -0.2 -3.8 0
v -0.1 -3.8 0
v 0 -3.8 0
v 0.1 -3.8 0
v -0.1 -3.8 -0.1
v 0 -3.8 -0.1
v -0.1 -3.7 0.4
v 0 -3.7 0.4
v -0.1 -3.7 0.3
v 0 -3.7 0.3
v -0.1 -3.7 -0.2
v 0 -3.7 -0.2
v -0.1 -3.7 -0.3
v 0 -3.7 -0.3
v -0.4 -3.6 0.1
v -0.3 -3.6 0.1
v 0.2 -3.6 0.1
v 0.3 -3.6 0.1
v -0.4 -3.6 0
v -0.3 -3.6 0
v 0.2 -3.6 0
v 0.3 -3.6 0
v -0.1 -3.5 0.3
v 0 -3.5 0.3
v -0.1 -3.5 0.2
v 0 -3.5 0.2
v -0.3 -3.5 0.1
v -0.2 -3.5 0.1
v 0.1 -3.5 0.1
v 0.2 -3.5 0.1
v -0.3 -3.5 0
v -0.2 -3.5 0
v 0.1 -3.5 0
v 0.2 -3.5 0
v -0.1 -3.5 -0.1
v 0 -3.5 -0.1
v -0.1 -3.5 -0.2
v 0 -3.5 -0.2
v -0.1 -2.5 0.2
v 0 -2.5 0.2
v -0.2 -2.5 0.1
v -0.1 -2.5 0.1
v 0 -2.5 0.1
v 0.1 -2.5 0.1
v -0.2 -2.5 0
v -0.1 -2.5 0
v 0 -2.5 0
v 0.1 -2.5 0
v -0.1 -2.5 -0.1
v 0 -2.5 -0.1
v -0.1 -2.4 0.1
v 0 -2.4 0.1
v -0.1 -2.4 0
v 0 -2.4 0

# faces
f 3/1/1 2/1/1 1/1/1
f 4/1/1 2/1/1 3/1/1
f 7/1/1 6/1/1 5/1/1
f 8/1/1 6/1/1 7/1/1
f 11/4/1 10/4/1 9/4/1
f 12/4/1 10/4/1 11/4/1
f 13/2/1 12/2/1 11/2/1
f 14/2/1 12/2/1 13/2/1
f 15/4/1 14/4/1 13/4/1
f 16/4/1 14/4/1 15/4/1
f 17/2/1 16/2/1 15/2/1
f 18/2/1 16/2/1 17/2/1
f 19/4/1 18/4/1 17/4/1
f 20/4/1 18/4/1 19/4/1
f 21/1/1 20/1/1 19/1/1
f 22/1/1 20/1/1 21/1/1
f 27/1/1 24/1/1 23/1/1
f 30/1/1 26/1/1 25/1/1
f 31/1/1 28/1/1 27/1/1
f 34/1/1 30/1/1 29/1/1
f 35/1/1 27/1/1 23/1/1
f 35/1/1 31/1/1 27/1/1
f 36/1/1 31/1/1 35/1/1
f 37/4/1 32/4/1 31/4/1
f 37/1/1 31/1/1 36/1/1
f 38/4/1 32/4/1 37/4/1
f 39/4/1 34/4/1 33/4/1
f 40/1/1 30/1/1 34/1/1
f 40/4/1 34/4/1 39/4/1
f 41/1/1 26/1/1 30/1/1
f 41/1/1 30/1/1 40/1/1
f 42/1/1 26/1/1 41/1/1
f 43/1/1 37/1/1 36/1/1
f 44/3/1 38/3/1 37/3/1
f 44/1/1 37/1/1 43/1/1
f 45/3/1 38/3/1 44/3/1
f 46/3/1 40/3/1 39/3/1
f 47/1/1 41/1/1 40/1/1
f 47/3/1 40/3/1 46/3/1
f 48/1/1 41/1/1 47/1/1
f 49/4/1 45/4/1 44/4/1
f 50/4/1 47/4/1 46/4/1
f 51/4/1 49/4/1 44/4/1
f 52/4/1 49/4/1 51/4/1
f 53/4/1 47/4/1 50/4/1
f 54/4/1 47/4/1 53/4/1
f 55/2/1 52/2/1 51/2/1
f 56/2/1 52/2/1 55/2/1
f 57/2/1 54/2/1 53/2/1
f 58/2/1 54/2/1 57/2/1
f 59/4/1 56/4/1 55/4/1
f 60/4/1 58/4/1 57/4/1
f 61/4/1 59/4/1 55/4/1
f 62/4/1 59/4/1 61/4/1
f 63/4/1 58/4/1 60/4/1
f 64/4/1 58/4/1 63/4/1
f 65/1/1 62/1/1 61/1/1
f 66/1/1 62/1/1 65/1/1
f 67/1/1 64/1/1 63/1/1
f 68/1/1 64/1/1 67/1/1
f 69/1/1 67/1/1 66/1/1
f 70/1/1 67/1/1 69/1/1
f 73/1/1 72/1/1 71/1/1
f 74/1/1 72/1/1 73/1/1
f 77/1/1 76/1/1 75/1/1
f 78/1/1 76/1/1 77/1/1
f 79/1/2 80/1/2 81/1/2
f 81/1/2 80/1/2 82/1/2
f 83/1/2 84/1/2 85/1/2
f 85/1/2 84/1/2 86/1/2
f 87/1/2 88/1/2 91/1/2
f 89/1/2 90/1/2 94/1/2
f 91/1/2 92/1/2 95/1/2
f 93/1/2 94/1/2 98/1/2
f 87/1/2 91/1/2 99/1/2
f 91/1/2 95/1/2 99/1/2
f 99/1/2 95/1/2 100/1/2
f 95/4/2 96/4/2 101/4/2
f 100/1/2 95/1/2 101/1/2
f 101/4/2 96/4/2 102/4/2
f 97/4/2 98/4/2 103/4/2
f 98/1/2 94/1/2 104/1/2
f 103/4/2 98/4/2 104/4/2
f 94/1/2 90/1/2 105/1/2
f 104/1/2 94/1/2 105/1/2
f 105/1/2 90/1/2 106/1/2
f 100/1/2 101/1/2 107/1/2
f 101/3/2 102/3/2 108/3/2
f 107/1/2 101/1/2 108/1/2
f 108/3/2 102/3/2 109/3/2
f 103/3/2 104/3/2 110/3/2
f 104/1/2 105/1/2 111/1/2
f 110/3/2 104/3/2 111/3/2
f 111/1/2 105/1/2 112/1/2
f 108/4/2 109/4/2 113/4/2
f 110/4/2 111/4/2 114/4/2
f 108/4/2 113/4/2 115/4/2
f 115/4/2 113/4/2 116/4/2
f 114/4/2 111/4/2 117/4/2
f 117/4/2 111/4/2 118/4/2
f 115/2/2 116/2/2 119/2/2
f 119/2/2 116/2/2 120/2/2
f 117/2/2 118/2/2 121/2/2
f 121/2/2 118/2/2 122/2/2
f 119/4/2 120/4/2 123/4/2
f 121/4/2 122/4/2 124/4/2
f 119/4/2 123/4/2 125/4/2
f 125/4/2 123/4/2 126/4/2
f 124/4/2 122/4/2 127/4/2
f 127/4/2 122/4/2 128/4/2
f 125/1/2 126/1/2 129/1/2
f 129/1/2 126/1/2 130/1/2
f 127/1/2 128/1/2 131/1/2
f 131/1/2 128/1/2 132/1/2
f 130/1/2 131/1/2 133/1/2
f 133/1/2 131/1/2 134/1/2
f 135/4/2 136/4/2 137/4/2
f 137/4/2 136/4/2 138/4/2
f 137/2/2 138/2/2 139/2/2
f 139/2/2 138/2/2 140/2/2
f 139/4/2 140/4/2 141/4/2
f 141/4/2 140/4/2 142/4/2
f 141/2/2 142/2/2 143/2/2
f 143/2/2 142/2/2 144/2/2
f 143/4/2 144/4/2 145/4/2
f 145/4/2 144/4/2 146/4/2
f 145/1/2 146/1/2 147/1/2
f 147/1/2 146/1/2 148/1/2
f 149/1/2 150/1/2 151/1/2
f 151/1/2 150/1/2 152/1/2
f 153/1/2 154/1/2 155/1/2
f 155/1/2 154/1/2 156/1/2
f 159/1/3 158/1/3 157/1/3
f 160/1/3 158/1/3 159/1/3
f 163/1/3 162/1/3 161/1/3
f 164/1/3 162/1/3 163/1/3
f 170/4/3 166/4/3 165/4/3
f 171/2/3 167/2/3 166/2/3
f 171/4/3 166/4/3 170/4/3
f 172/4/3 168/4/3 167/4/3
f 172/2/3 167/2/3 171/2/3
f 173/1/3 169/1/3 168/1/3
f 173/4/3 168/4/3 172/4/3
f 174/1/3 169/1/3 173/1/3
f 177/1/3 176/1/3 175/1/3
f 178/1/3 176/1/3 177/1/3
f 179/1/3 176/1/3 178/1/3
f 181/1/3 180/1/3 179/1/3
f 181/1/3 179/1/3 178/1/3
f 182/1/3 180/1/3 181/1/3
f 183/1/3 180/1/3 182/1/3
f 184/1/3 180/1/3 183/1/3
f 191/4/3 183/4/3 182/4/3
f 192/3/3 184/3/3 183/3/3
f 192/4/3 183/4/3 191/4/3
f 193/4/3 185/4/3 184/4/3
f 193/3/3 184/3/3 192/3/3
f 194/2/3 186/2/3 185/2/3
f 194/4/3 185/4/3 193/4/3
f 195/4/3 187/4/3 186/4/3
f 195/2/3 186/2/3 194/2/3
f 196/2/3 188/2/3 187/2/3
f 196/4/3 187/4/3 195/4/3
f 197/4/3 189/4/3 188/4/3
f 197/2/3 188/2/3 196/2/3
f 198/1/3 190/1/3 189/1/3
f 198/4/3 189/4/3 197/4/3
f 199/1/3 190/1/3 198/1/3
f 209/1/3 200/1/3 199/1/3
f 210/1/3 200/1/3 209/1/3
f 212/4/3 202/4/3 201/4/3
f 213/3/3 203/3/3 202/3/3
f 213/4/3 202/4/3 212/4/3
f 214/4/3 204/4/3 203/4/3
f 214/3/3 203/3/3 213/3/3
f 215/2/3 205/2/3 204/2/3
f 215/4/3 204/4/3 214/4/3
f 216/4/3 206/4/3 205/4/3
f 216/2/3 205/2/3 215/2/3
f 217/2/3 207/2/3 206/2/3
f 217/4/3 206/4/3 216/4/3
f 218/4/3 208/4/3 207/4/3
f 218/2/3 207/2/3 217/2/3
f 219/1/3 209/1/3 208/1/3
f 219/4/3 208/4/3 218/4/3
f 220/1/3 209/1/3 219/1/3
f 222/1/3 212/1/3 211/1/3
f 222/1/3 213/1/3 212/1/3
f 222/1/3 214/1/3 213/1/3
f 223/1/3 214/1/3 222/1/3
f 224/1/3 214/1/3 223/1/3
f 225/1/3 222/1/3 221/1/3
f 225/1/3 223/1/3 222/1/3
f 226/1/3 223/1/3 225/1/3
f 229/1/3 228/1/3 227/1/3
f 230/1/3 228/1/3 229/1/3
f 233/1/3 232/1/3 231/1/3
f 234/1/3 232/1/3 233/1/3
f 235/1/4 236/1/4 237/1/4
f 237/1/4 236/1/4 238/1/4
f 239/1/4 240/1/4 241/1/4
f 241/1/4 240/1/4 242/1/4
f 243/1/4 244/1/4 245/1/4
f 245/1/4 244/1/4 246/1/4
f 246/1/4 244/1/4 247/1/4
f 247/1/4 248/1/4 249/1/4
f 246/1/4 247/1/4 249/1/4
f 249/1/4 248/1/4 250/1/4
f 250/1/4 248/1/4 251/1/4
f 251/1/4 248/1/4 252/1/4
f 250/4/4 251/4/4 259/4/4
f 251/3/4 252/3/4 260/3/4
f 259/4/4 251/4/4 260/4/4
f 252/4/4 253/4/4 261/4/4
f 260/3/4 252/3/4 261/3/4
f 253/2/4 254/2/4 262/2/4
f 261/4/4 253/4/4 262/4/4
f 254/4/4 255/4/4 263/4/4
f 262/2/4 254/2/4 263/2/4
f 255/2/4 256/2/4 264/2/4
f 263/4/4 255/4/4 264/4/4
f 256/4/4 257/4/4 265/4/4
f 264/2/4 256/2/4 265/2/4
f 257/1/4 258/1/4 266/1/4
f 265/4/4 257/4/4 266/4/4
f 266/1/4 258/1/4 267/1/4
f 267/1/4 268/1/4 277/1/4
f 277/1/4 268/1/4 278/1/4
f 269/4/4 270/4/4 280/4/4
f 270/3/4 271/3/4 281/3/4
f 280/4/4 270/4/4 281/4/4
f 271/4/4 272/4/4 282/4/4
f 281/3/4 271/3/4 282/3/4
f 272/2/4 273/2/4 283/2/4
f 282/4/4 272/4/4 283/4/4
f 273/4/4 274/4/4 284/4/4
f 283/2/4 273/2/4 284/2/4
f 274/2/4 275/2/4 285/2/4
f 284/4/4 274/4/4 285/4/4
f 275/4/4 276/4/4 286/4/4
f 285/2/4 275/2/4 286/2/4
f 276/1/4 277/1/4 287/1/4
f 286/4/4 276/4/4 287/4/4
f 287/1/4 277/1/4 288/1/4
f 279/1/4 280/1/4 290/1/4
f 280/1/4 281/1/4 290/1/4
f 281/1/4 282/1/4 290/1/4
f 290/1/4 282/1/4 291/1/4
f 291/1/4 282/1/4 292/1/4
f 289/1/4 290/1/4 293/1/4
f 290/1/4 291/1/4 293/1/4
f 293/1/4 291/1/4 294/1/4
f 295/4/4 296/4/4 300/4/4
f 296/2/4 297/2/4 301/2/4
f 300/4/4 296/4/4 301/4/4
f 297/4/4 298/4/4 302/4/4
f 301/2/4 297/2/4 302/2/4
f 298/1/4 299/1/4 303/1/4
f 302/4/4 298/4/4 303/4/4
f 303/1/4 299/1/4 304/1/4
f 305/1/4 306/1/4 307/1/4
f 307/1/4 306/1/4 308/1/4
f 309/1/4 310/1/4 311/1/4
f 311/1/4 310/1/4 312/1/4
f 315/1/5 314/1/5 313/1/5
f 316/1/5 314/1/5 315/1/5
f 321/1/5 318/1/5 317/1/5
f 322/1/5 318/1/5 321/1/5
f 323/1/5 320/1/5 319/1/5
f 324/1/5 320/1/5 323/1/5
f 327/1/5 326/1/5 325/1/5
f 328/1/5 326/1/5 327/1/5
f 331/1/5 330/1/5 329/1/5
f 332/1/5 330/1/5 331/1/5
f 337/1/5 334/1/5 333/1/5
f 338/1/5 334/1/5 337/1/5
f 339/1/5 336/1/5 335/1/5
f 340/1/5 336/1/5 339/1/5
f 343/1/5 342/1/5 341/1/5
f 344/1/5 342/1/5 343/1/5
f 348/4/5 346/4/5 345/4/5
f 349/4/5 346/4/5 348/4/5
f 351/4/5 348/4/5 347/4/5
f 351/4/5 350/4/5 349/4/5
f 351/4/5 349/4/5 348/4/5
f 352/4/5 350/4/5 351/4/5
f 353/4/5 350/4/5 352/4/5
f 354/4/5 350/4/5 353/4/5
f 355/4/5 353/4/5 352/4/5
f 356/4/5 353/4/5 355/4/5
f 357/1/6 358/1/6 359/1/6
f 359/1/6 358/1/6 360/1/6
f 361/1/6 362/1/6 363/1/6
f 363/1/6 362/1/6 364/1/6
f 365/1/6 366/1/6 369/1/6
f 369/1/6 366/1/6 370/1/6
f 367/1/6 368/1/6 371/1/6
f 371/1/6 368/1/6 372/1/6
f 373/1/6 374/1/6 375/1/6
f 375/1/6 374/1/6 376/1/6
f 377/1/6 378/1/6 381/1/6
f 381/1/6 378/1/6 382/1/6
f 379/1/6 380/1/6 383/1/6
f 383/1/6 380/1/6 384/1/6
f 385/1/6 386/1/6 387/1/6
f 387/1/6 386/1/6 388/1/6
f 389/1/6 390/1/6 392/1/6
f 392/1/6 390/1/6 393/1/6
f 391/1/6 392/1/6 395/1/6
f 395/1/6 392/1/6 396/1/6
f 393/1/6 394/1/6 397/1/6
f 397/1/6 394/1/6 398/1/6
f 396/1/6 397/1/6 399/1/6
f 399/1/6 397/1/6 400/1/6
f 401/1/6 402/1/6 403/1/6
f 403/1/6 402/1/6 404/1/6
